<svg width="120" height="120" viewBox="0 0 120 120" fill="none" xmlns="http://www.w3.org/2000/svg">
<rect width="120" height="120" rx="10" fill="#222831"/>
<path d="M59.5 87.625C75.033 87.625 87.625 75.033 87.625 59.5C87.625 43.967 75.033 31.375 59.5 31.375C43.967 31.375 31.375 43.967 31.375 59.5C31.375 75.033 43.967 87.625 59.5 87.625Z" stroke="#2D323C" stroke-width="2" stroke-miterlimit="10" stroke-linecap="round" stroke-linejoin="round"/>
<path d="M39.9688 39.9688L79.0313 79.0313" stroke="#2D323C" stroke-width="2" stroke-linecap="round" stroke-linejoin="round"/>
<path d="M16.8848 99.1V106H16.0048V99.1H16.8848ZM24.462 101.01C24.882 101.01 25.202 101.123 25.422 101.35C25.6486 101.577 25.762 101.91 25.762 102.35V106H24.922V102.59C24.9153 102.29 24.8553 102.073 24.742 101.94C24.6286 101.8 24.4353 101.73 24.162 101.73C23.9886 101.73 23.822 101.76 23.662 101.82C23.5086 101.873 23.3386 101.96 23.152 102.08C22.9653 102.2 22.7386 102.357 22.472 102.55L22.422 101.95C22.7753 101.637 23.1186 101.403 23.452 101.25C23.7853 101.09 24.122 101.01 24.462 101.01ZM19.232 101.13L19.292 102.06L19.382 102.21V106H18.532V101.13H19.232ZM21.272 101.01C21.6853 101.01 22.002 101.123 22.222 101.35C22.442 101.57 22.5553 101.903 22.562 102.35V106H21.742V102.59C21.742 102.277 21.6786 102.057 21.552 101.93C21.4253 101.797 21.2353 101.73 20.982 101.73C20.8153 101.73 20.652 101.757 20.492 101.81C20.3386 101.863 20.1653 101.95 19.972 102.07C19.7853 102.19 19.5553 102.35 19.282 102.55L19.222 101.95C19.5753 101.637 19.9186 101.403 20.252 101.25C20.5853 101.09 20.9253 101.01 21.272 101.01ZM29.5917 101.01C29.9517 101.01 30.2551 101.06 30.5017 101.16C30.7551 101.253 30.9451 101.413 31.0717 101.64C31.1984 101.867 31.2617 102.177 31.2617 102.57V106H30.5917L30.4617 104.94L30.4017 104.83V102.57C30.4017 102.27 30.3317 102.057 30.1917 101.93C30.0584 101.797 29.7984 101.73 29.4117 101.73C29.1584 101.73 28.8384 101.743 28.4517 101.77C28.0717 101.797 27.6951 101.827 27.3217 101.86L27.2417 101.23C27.4684 101.19 27.7151 101.153 27.9817 101.12C28.2551 101.087 28.5317 101.06 28.8117 101.04C29.0917 101.02 29.3517 101.01 29.5917 101.01ZM30.8617 103L30.8517 103.64L28.5217 103.65C28.2884 103.657 28.1251 103.72 28.0317 103.84C27.9384 103.953 27.8917 104.113 27.8917 104.32V104.63C27.8917 104.883 27.9517 105.07 28.0717 105.19C28.1917 105.303 28.3851 105.36 28.6517 105.36C28.8384 105.36 29.0484 105.327 29.2817 105.26C29.5217 105.187 29.7617 105.077 30.0017 104.93C30.2417 104.783 30.4617 104.597 30.6617 104.37V105C30.5884 105.093 30.4817 105.203 30.3417 105.33C30.2084 105.45 30.0451 105.57 29.8517 105.69C29.6651 105.803 29.4551 105.9 29.2217 105.98C28.9951 106.053 28.7484 106.09 28.4817 106.09C28.1951 106.09 27.9417 106.04 27.7217 105.94C27.5017 105.833 27.3284 105.68 27.2017 105.48C27.0817 105.273 27.0217 105.023 27.0217 104.73V104.2C27.0217 103.82 27.1384 103.527 27.3717 103.32C27.6117 103.107 27.9451 103 28.3717 103H30.8617ZM34.71 101.01C35.23 101.01 35.64 101.063 35.94 101.17C36.2467 101.277 36.4633 101.443 36.59 101.67C36.7233 101.897 36.79 102.193 36.79 102.56C36.79 102.913 36.7233 103.207 36.59 103.44C36.4633 103.667 36.2467 103.837 35.94 103.95C35.6333 104.057 35.22 104.11 34.7 104.11C34.18 104.11 33.7667 104.057 33.46 103.95C33.16 103.837 32.9433 103.667 32.81 103.44C32.6833 103.213 32.62 102.923 32.62 102.57C32.62 102.203 32.6833 101.907 32.81 101.68C32.9433 101.447 33.1633 101.277 33.47 101.17C33.7767 101.063 34.19 101.01 34.71 101.01ZM34.7 101.66C34.2133 101.66 33.8733 101.73 33.68 101.87C33.4933 102.003 33.4 102.233 33.4 102.56C33.4 102.88 33.4933 103.11 33.68 103.25C33.8733 103.39 34.2133 103.46 34.7 103.46C35.1933 103.46 35.5333 103.39 35.72 103.25C35.9067 103.11 36 102.88 36 102.56C36 102.233 35.9067 102.003 35.72 101.87C35.5333 101.73 35.1933 101.66 34.7 101.66ZM37.36 101.13L37.31 101.6L36.07 101.7L35.72 101.13H37.36ZM33.33 103.79L33.82 103.86C33.7067 103.96 33.63 104.083 33.59 104.23C33.55 104.37 33.56 104.5 33.62 104.62C33.6867 104.74 33.8233 104.817 34.03 104.85L35.85 105.14C36.31 105.207 36.63 105.35 36.81 105.57C36.99 105.79 37.08 106.103 37.08 106.51C37.08 106.89 37.0067 107.19 36.86 107.41C36.72 107.63 36.48 107.787 36.14 107.88C35.8 107.973 35.34 108.02 34.76 108.02C34.32 108.02 33.95 107.993 33.65 107.94C33.35 107.893 33.1067 107.81 32.92 107.69C32.74 107.577 32.61 107.427 32.53 107.24C32.45 107.053 32.41 106.82 32.41 106.54C32.41 106.327 32.44 106.147 32.5 106C32.5667 105.86 32.6667 105.733 32.8 105.62C32.94 105.507 33.12 105.397 33.34 105.29L33.94 104.96L34.33 105.1L33.84 105.47C33.7067 105.57 33.5933 105.67 33.5 105.77C33.4133 105.863 33.3467 105.963 33.3 106.07C33.26 106.183 33.24 106.317 33.24 106.47C33.24 106.697 33.2833 106.87 33.37 106.99C33.4567 107.11 33.61 107.19 33.83 107.23C34.05 107.277 34.3567 107.3 34.75 107.3C35.1433 107.3 35.4467 107.277 35.66 107.23C35.88 107.183 36.0333 107.1 36.12 106.98C36.2067 106.86 36.25 106.69 36.25 106.47C36.25 106.303 36.2267 106.177 36.18 106.09C36.14 106.003 36.06 105.937 35.94 105.89C35.82 105.843 35.6433 105.803 35.41 105.77L33.66 105.53C33.4533 105.503 33.2867 105.437 33.16 105.33C33.04 105.223 32.9567 105.097 32.91 104.95C32.8633 104.803 32.85 104.657 32.87 104.51C32.89 104.357 32.94 104.217 33.02 104.09C33.1 103.957 33.2033 103.857 33.33 103.79ZM40.3171 101.01C41.0504 101.01 41.5804 101.143 41.9071 101.41C42.2404 101.677 42.4071 102.073 42.4071 102.6C42.4138 103.033 42.3238 103.373 42.1371 103.62C41.9504 103.86 41.6538 103.98 41.2471 103.98H38.4071V103.32H41.0271C41.2471 103.32 41.3904 103.247 41.4571 103.1C41.5238 102.947 41.5571 102.78 41.5571 102.6C41.5504 102.287 41.4571 102.063 41.2771 101.93C41.0971 101.797 40.7904 101.73 40.3571 101.73C40.0038 101.73 39.7238 101.783 39.5171 101.89C39.3171 101.99 39.1738 102.17 39.0871 102.43C39.0071 102.683 38.9671 103.04 38.9671 103.5C38.9671 104.02 39.0171 104.417 39.1171 104.69C39.2238 104.963 39.3904 105.15 39.6171 105.25C39.8438 105.35 40.1438 105.4 40.5171 105.4C40.7771 105.4 41.0604 105.39 41.3671 105.37C41.6804 105.343 41.9604 105.313 42.2071 105.28L42.2971 105.85C42.1438 105.91 41.9538 105.96 41.7271 106C41.5071 106.04 41.2771 106.07 41.0371 106.09C40.8038 106.11 40.5938 106.12 40.4071 106.12C39.8471 106.12 39.3971 106.037 39.0571 105.87C38.7171 105.697 38.4671 105.423 38.3071 105.05C38.1538 104.67 38.0771 104.17 38.0771 103.55C38.0771 102.91 38.1538 102.407 38.3071 102.04C38.4671 101.667 38.7104 101.403 39.0371 101.25C39.3704 101.09 39.7971 101.01 40.3171 101.01ZM48.8748 101.01C49.7548 101.01 50.1948 101.457 50.1948 102.35V106H49.3448V102.59C49.3448 102.263 49.2914 102.04 49.1848 101.92C49.0781 101.793 48.8981 101.73 48.6448 101.73C48.3448 101.73 48.0448 101.803 47.7448 101.95C47.4448 102.097 47.0881 102.297 46.6748 102.55L46.6348 101.94C47.0148 101.647 47.3914 101.42 47.7648 101.26C48.1381 101.093 48.5081 101.01 48.8748 101.01ZM46.6348 101.13L46.7048 102.06L46.7648 102.21V106H45.9148V101.13H46.6348ZM53.7853 101.01C54.3453 101.01 54.792 101.093 55.1253 101.26C55.4653 101.427 55.7086 101.7 55.8553 102.08C56.002 102.453 56.0753 102.95 56.0753 103.57C56.0753 104.19 56.002 104.69 55.8553 105.07C55.7086 105.443 55.4653 105.713 55.1253 105.88C54.792 106.047 54.3453 106.13 53.7853 106.13C53.232 106.13 52.7853 106.047 52.4453 105.88C52.112 105.713 51.8686 105.443 51.7153 105.07C51.5686 104.69 51.4953 104.19 51.4953 103.57C51.4953 102.95 51.5686 102.453 51.7153 102.08C51.8686 101.7 52.112 101.427 52.4453 101.26C52.7853 101.093 53.232 101.01 53.7853 101.01ZM53.7853 101.73C53.432 101.73 53.152 101.787 52.9453 101.9C52.7453 102.007 52.602 102.193 52.5153 102.46C52.4286 102.727 52.3853 103.097 52.3853 103.57C52.3853 104.043 52.4286 104.413 52.5153 104.68C52.602 104.947 52.7453 105.137 52.9453 105.25C53.152 105.357 53.432 105.41 53.7853 105.41C54.1386 105.41 54.4186 105.357 54.6253 105.25C54.832 105.137 54.9786 104.947 55.0653 104.68C55.152 104.413 55.1953 104.043 55.1953 103.57C55.1953 103.097 55.152 102.727 55.0653 102.46C54.9786 102.193 54.832 102.007 54.6253 101.9C54.4186 101.787 54.1386 101.73 53.7853 101.73ZM58.6191 99.69V104.66C58.6191 104.893 58.6691 105.06 58.7691 105.16C58.8691 105.26 59.0391 105.31 59.2791 105.31H60.0191L60.1191 105.96C60.0125 105.987 59.8891 106.01 59.7491 106.03C59.6091 106.05 59.4725 106.063 59.3391 106.07C59.2058 106.083 59.0991 106.09 59.0191 106.09C58.6125 106.09 58.3025 105.977 58.0891 105.75C57.8758 105.523 57.7691 105.197 57.7691 104.77V99.69H58.6191ZM60.1691 101.13V101.8H56.8891V101.18L57.8491 101.13H60.1691ZM65.7343 101.01C66.0943 101.01 66.3976 101.06 66.6443 101.16C66.8976 101.253 67.0876 101.413 67.2143 101.64C67.341 101.867 67.4043 102.177 67.4043 102.57V106H66.7343L66.6043 104.94L66.5443 104.83V102.57C66.5443 102.27 66.4743 102.057 66.3343 101.93C66.201 101.797 65.941 101.73 65.5543 101.73C65.301 101.73 64.981 101.743 64.5943 101.77C64.2143 101.797 63.8376 101.827 63.4643 101.86L63.3843 101.23C63.611 101.19 63.8576 101.153 64.1243 101.12C64.3976 101.087 64.6743 101.06 64.9543 101.04C65.2343 101.02 65.4943 101.01 65.7343 101.01ZM67.0043 103L66.9943 103.64L64.6643 103.65C64.431 103.657 64.2676 103.72 64.1743 103.84C64.081 103.953 64.0343 104.113 64.0343 104.32V104.63C64.0343 104.883 64.0943 105.07 64.2143 105.19C64.3343 105.303 64.5276 105.36 64.7943 105.36C64.981 105.36 65.191 105.327 65.4243 105.26C65.6643 105.187 65.9043 105.077 66.1443 104.93C66.3843 104.783 66.6043 104.597 66.8043 104.37V105C66.731 105.093 66.6243 105.203 66.4843 105.33C66.351 105.45 66.1876 105.57 65.9943 105.69C65.8076 105.803 65.5976 105.9 65.3643 105.98C65.1376 106.053 64.891 106.09 64.6243 106.09C64.3376 106.09 64.0843 106.04 63.8643 105.94C63.6443 105.833 63.471 105.68 63.3443 105.48C63.2243 105.273 63.1643 105.023 63.1643 104.73V104.2C63.1643 103.82 63.281 103.527 63.5143 103.32C63.7543 103.107 64.0876 103 64.5143 103H67.0043ZM73.2526 101.13L71.4726 105.79C71.4459 105.857 71.4059 105.91 71.3526 105.95C71.3059 105.983 71.2459 106 71.1726 106H70.4026C70.3359 106 70.2759 105.983 70.2226 105.95C70.1692 105.91 70.1292 105.857 70.1026 105.79L68.3226 101.13H69.2326L70.4326 104.54C70.4859 104.68 70.5359 104.823 70.5826 104.97C70.6292 105.117 70.6759 105.257 70.7226 105.39H70.8526C70.9059 105.25 70.9559 105.11 71.0026 104.97C71.0559 104.823 71.1059 104.68 71.1526 104.54L72.3526 101.13H73.2526ZM76.4765 101.01C76.8365 101.01 77.1398 101.06 77.3865 101.16C77.6398 101.253 77.8298 101.413 77.9565 101.64C78.0832 101.867 78.1465 102.177 78.1465 102.57V106H77.4765L77.3465 104.94L77.2865 104.83V102.57C77.2865 102.27 77.2165 102.057 77.0765 101.93C76.9432 101.797 76.6832 101.73 76.2965 101.73C76.0432 101.73 75.7232 101.743 75.3365 101.77C74.9565 101.797 74.5798 101.827 74.2065 101.86L74.1265 101.23C74.3532 101.19 74.5998 101.153 74.8665 101.12C75.1398 101.087 75.4165 101.06 75.6965 101.04C75.9765 101.02 76.2365 101.01 76.4765 101.01ZM77.7465 103L77.7365 103.64L75.4065 103.65C75.1732 103.657 75.0098 103.72 74.9165 103.84C74.8232 103.953 74.7765 104.113 74.7765 104.32V104.63C74.7765 104.883 74.8365 105.07 74.9565 105.19C75.0765 105.303 75.2698 105.36 75.5365 105.36C75.7232 105.36 75.9332 105.327 76.1665 105.26C76.4065 105.187 76.6465 105.077 76.8865 104.93C77.1265 104.783 77.3465 104.597 77.5465 104.37V105C77.4732 105.093 77.3665 105.203 77.2265 105.33C77.0932 105.45 76.9298 105.57 76.7365 105.69C76.5498 105.803 76.3398 105.9 76.1065 105.98C75.8798 106.053 75.6332 106.09 75.3665 106.09C75.0798 106.09 74.8265 106.04 74.6065 105.94C74.3865 105.833 74.2132 105.68 74.0865 105.48C73.9665 105.273 73.9065 105.023 73.9065 104.73V104.2C73.9065 103.82 74.0232 103.527 74.2565 103.32C74.4965 103.107 74.8298 103 75.2565 103H77.7465ZM80.5448 101.13V106H79.7048V101.13H80.5448ZM80.3248 99.06C80.4981 99.06 80.5848 99.1467 80.5848 99.32V99.89C80.5848 100.063 80.4981 100.15 80.3248 100.15H79.9248C79.7514 100.15 79.6648 100.063 79.6648 99.89V99.32C79.6648 99.1467 79.7514 99.06 79.9248 99.06H80.3248ZM83.0052 99L82.9952 104.66C82.9952 104.873 83.0519 105.037 83.1652 105.15C83.2852 105.257 83.4519 105.31 83.6652 105.31H84.1352L84.2352 105.96C84.1752 105.987 84.0886 106.01 83.9752 106.03C83.8686 106.05 83.7552 106.063 83.6352 106.07C83.5219 106.083 83.4252 106.09 83.3452 106.09C82.9852 106.09 82.6952 105.983 82.4752 105.77C82.2619 105.557 82.1552 105.25 82.1552 104.85V99H83.0052ZM87.414 101.01C87.774 101.01 88.0773 101.06 88.324 101.16C88.5773 101.253 88.7673 101.413 88.894 101.64C89.0207 101.867 89.084 102.177 89.084 102.57V106H88.414L88.284 104.94L88.224 104.83V102.57C88.224 102.27 88.154 102.057 88.014 101.93C87.8807 101.797 87.6207 101.73 87.234 101.73C86.9807 101.73 86.6607 101.743 86.274 101.77C85.894 101.797 85.5173 101.827 85.144 101.86L85.064 101.23C85.2907 101.19 85.5373 101.153 85.804 101.12C86.0773 101.087 86.354 101.06 86.634 101.04C86.914 101.02 87.174 101.01 87.414 101.01ZM88.684 103L88.674 103.64L86.344 103.65C86.1107 103.657 85.9473 103.72 85.854 103.84C85.7607 103.953 85.714 104.113 85.714 104.32V104.63C85.714 104.883 85.774 105.07 85.894 105.19C86.014 105.303 86.2073 105.36 86.474 105.36C86.6607 105.36 86.8707 105.327 87.104 105.26C87.344 105.187 87.584 105.077 87.824 104.93C88.064 104.783 88.284 104.597 88.484 104.37V105C88.4107 105.093 88.304 105.203 88.164 105.33C88.0307 105.45 87.8673 105.57 87.674 105.69C87.4873 105.803 87.2773 105.9 87.044 105.98C86.8173 106.053 86.5707 106.09 86.304 106.09C86.0173 106.09 85.764 106.04 85.544 105.94C85.324 105.833 85.1507 105.68 85.024 105.48C84.904 105.273 84.844 105.023 84.844 104.73V104.2C84.844 103.82 84.9607 103.527 85.194 103.32C85.434 103.107 85.7673 103 86.194 103H88.684ZM93.2223 101.01C93.8223 101.01 94.2656 101.207 94.5523 101.6C94.8389 101.987 94.9823 102.637 94.9823 103.55C94.9823 103.97 94.9456 104.34 94.8723 104.66C94.8056 104.98 94.6889 105.25 94.5223 105.47C94.3623 105.683 94.1423 105.847 93.8623 105.96C93.5889 106.067 93.2423 106.12 92.8223 106.12C92.6556 106.12 92.4756 106.113 92.2823 106.1C92.0889 106.087 91.8923 106.063 91.6923 106.03C91.4923 106.003 91.2956 105.97 91.1023 105.93C90.9156 105.883 90.7423 105.83 90.5823 105.77L91.2623 105.19C91.4423 105.243 91.6189 105.287 91.7923 105.32C91.9723 105.353 92.1456 105.377 92.3123 105.39C92.4856 105.397 92.6489 105.4 92.8023 105.4C93.1156 105.393 93.3656 105.333 93.5523 105.22C93.7456 105.107 93.8856 104.917 93.9723 104.65C94.0589 104.377 94.1023 104.01 94.1023 103.55C94.1023 103.103 94.0689 102.75 94.0023 102.49C93.9356 102.223 93.8156 102.033 93.6423 101.92C93.4756 101.807 93.2356 101.75 92.9223 101.75C92.6556 101.75 92.4023 101.823 92.1623 101.97C91.9223 102.11 91.6456 102.303 91.3323 102.55L91.2723 101.98C91.4723 101.767 91.6756 101.59 91.8823 101.45C92.0956 101.303 92.3156 101.193 92.5423 101.12C92.7689 101.047 92.9956 101.01 93.2223 101.01ZM91.4323 99V100.82C91.4323 101.027 91.4256 101.217 91.4123 101.39C91.4056 101.563 91.3823 101.74 91.3423 101.92L91.4223 102.06L91.4323 105.81L90.5823 105.77V99H91.4323ZM97.1654 99L97.1554 104.66C97.1554 104.873 97.2121 105.037 97.3254 105.15C97.4454 105.257 97.6121 105.31 97.8254 105.31H98.2954L98.3954 105.96C98.3354 105.987 98.2487 106.01 98.1354 106.03C98.0287 106.05 97.9154 106.063 97.7954 106.07C97.6821 106.083 97.5854 106.09 97.5054 106.09C97.1454 106.09 96.8554 105.983 96.6354 105.77C96.4221 105.557 96.3154 105.25 96.3154 104.85V99H97.1654ZM101.274 101.01C102.007 101.01 102.537 101.143 102.864 101.41C103.197 101.677 103.364 102.073 103.364 102.6C103.371 103.033 103.281 103.373 103.094 103.62C102.907 103.86 102.611 103.98 102.204 103.98H99.3641V103.32H101.984C102.204 103.32 102.347 103.247 102.414 103.1C102.481 102.947 102.514 102.78 102.514 102.6C102.507 102.287 102.414 102.063 102.234 101.93C102.054 101.797 101.747 101.73 101.314 101.73C100.961 101.73 100.681 101.783 100.474 101.89C100.274 101.99 100.131 102.17 100.044 102.43C99.9641 102.683 99.9241 103.04 99.9241 103.5C99.9241 104.02 99.9741 104.417 100.074 104.69C100.181 104.963 100.347 105.15 100.574 105.25C100.801 105.35 101.101 105.4 101.474 105.4C101.734 105.4 102.017 105.39 102.324 105.37C102.637 105.343 102.917 105.313 103.164 105.28L103.254 105.85C103.101 105.91 102.911 105.96 102.684 106C102.464 106.04 102.234 106.07 101.994 106.09C101.761 106.11 101.551 106.12 101.364 106.12C100.804 106.12 100.354 106.037 100.014 105.87C99.6741 105.697 99.4241 105.423 99.2641 105.05C99.1108 104.67 99.0341 104.17 99.0341 103.55C99.0341 102.91 99.1108 102.407 99.2641 102.04C99.4241 101.667 99.6675 101.403 99.9941 101.25C100.327 101.09 100.754 101.01 101.274 101.01Z" fill="#EEEEEE"/>
</svg>
