<svg width="30" height="30" viewBox="0 0 30 30" fill="none" xmlns="http://www.w3.org/2000/svg">
<path d="M24.0891 6.66207C22.4266 5.88707 20.6266 5.32457 18.7516 4.99957C18.7352 4.99904 18.7188 5.00213 18.7037 5.00861C18.6886 5.01509 18.6751 5.0248 18.6641 5.03707C18.4391 5.44957 18.1766 5.98707 18.0016 6.39957C16.0129 6.09957 13.9904 6.09957 12.0016 6.39957C11.8266 5.97457 11.5641 5.44957 11.3266 5.03707C11.3141 5.01207 11.2766 4.99957 11.2391 4.99957C9.36411 5.32457 7.57661 5.88707 5.90161 6.66207C5.88911 6.66207 5.87661 6.67457 5.86411 6.68707C2.46411 11.7746 1.52661 16.7246 1.98911 21.6246C1.98911 21.6496 2.00161 21.6746 2.02661 21.6871C4.27661 23.3371 6.43911 24.3371 8.57661 24.9996C8.61411 25.0121 8.65161 24.9996 8.66411 24.9746C9.16411 24.2871 9.61411 23.5621 10.0016 22.7996C10.0266 22.7496 10.0016 22.6996 9.95161 22.6871C9.23911 22.4121 8.56411 22.0871 7.90161 21.7121C7.85161 21.6871 7.85161 21.6121 7.88911 21.5746C8.02661 21.4746 8.16411 21.3621 8.30161 21.2621C8.32661 21.2371 8.36411 21.2371 8.38911 21.2496C12.6891 23.2121 17.3266 23.2121 21.5766 21.2496C21.6016 21.2371 21.6391 21.2371 21.6641 21.2621C21.8016 21.3746 21.9391 21.4746 22.0766 21.5871C22.1266 21.6246 22.1266 21.6996 22.0641 21.7246C21.4141 22.1121 20.7266 22.4246 20.0141 22.6996C19.9641 22.7121 19.9516 22.7746 19.9641 22.8121C20.3641 23.5746 20.8141 24.2996 21.3016 24.9871C21.3391 24.9996 21.3766 25.0121 21.4141 24.9996C23.5641 24.3371 25.7266 23.3371 27.9766 21.6871C28.0016 21.6746 28.0141 21.6496 28.0141 21.6246C28.5641 15.9621 27.1016 11.0496 24.1391 6.68707C24.1266 6.67457 24.1141 6.66207 24.0891 6.66207V6.66207ZM10.6516 18.6371C9.36411 18.6371 8.28911 17.4496 8.28911 15.9871C8.28911 14.5246 9.33911 13.3371 10.6516 13.3371C11.9766 13.3371 13.0266 14.5371 13.0141 15.9871C13.0141 17.4496 11.9641 18.6371 10.6516 18.6371ZM19.3641 18.6371C18.0766 18.6371 17.0016 17.4496 17.0016 15.9871C17.0016 14.5246 18.0516 13.3371 19.3641 13.3371C20.6891 13.3371 21.7391 14.5371 21.7266 15.9871C21.7266 17.4496 20.6891 18.6371 19.3641 18.6371Z" fill="#EEEEEE"/>
</svg>
