<svg width="30" height="30" viewBox="0 0 30 30" fill="none" xmlns="http://www.w3.org/2000/svg">
<path d="M28.75 6.96518C27.9842 8.08061 27.0447 9.03147 25.9315 9.81774C25.9425 10.0286 25.948 10.267 25.948 10.5328C25.948 12.0097 25.7281 13.4884 25.2883 14.9688C24.8485 16.4493 24.1768 17.8664 23.273 19.2201C22.3693 20.5738 21.2927 21.773 20.0434 22.8178C18.7941 23.8626 17.2924 24.6957 15.5382 25.317C13.7841 25.9384 11.9041 26.249 9.89833 26.249C6.76794 26.249 3.88517 25.4215 1.25 23.7664C1.71771 23.8173 2.16629 23.8428 2.59572 23.8428C5.2109 23.8428 7.54668 23.054 9.60306 21.4765C8.38371 21.4546 7.29169 21.087 6.32701 20.3738C5.36232 19.6605 4.69845 18.7492 4.33539 17.6396C4.69425 17.7066 5.04844 17.7401 5.39795 17.7401C5.90104 17.7401 6.39608 17.6758 6.88306 17.5473C5.58179 17.2921 4.50228 16.6574 3.64452 15.6433C2.78679 14.6292 2.35793 13.4587 2.35793 12.1319V12.0635C3.15665 12.4965 4.00862 12.7269 4.91382 12.7545C4.14296 12.2513 3.53179 11.5951 3.08029 10.7858C2.62877 9.97658 2.40301 9.10083 2.40301 8.15859C2.40301 7.16484 2.6573 6.23947 3.16589 5.38248C4.581 7.083 6.2957 8.44211 8.30999 9.4598C10.3243 10.4775 12.4853 11.0427 14.7929 11.1554C14.6945 10.7538 14.6452 10.3346 14.645 9.89794C14.645 8.37331 15.196 7.0715 16.2979 5.99251C17.3999 4.91352 18.7294 4.37402 20.2863 4.37402C21.9164 4.37402 23.2894 4.95525 24.4054 6.1177C25.6804 5.87038 26.8743 5.42305 27.987 4.77569C27.5583 6.09679 26.7323 7.11594 25.5089 7.83311C26.6333 7.70227 27.7136 7.41296 28.75 6.96518H28.75Z" fill="#EEEEEE"/>
</svg>
