<svg width="30" height="30" viewBox="0 0 30 30" fill="none" xmlns="http://www.w3.org/2000/svg">
<path d="M1.5 3.43388C1.5 2.36569 2.38762 1.5 3.48281 1.5H26.5172C27.6124 1.5 28.5 2.36569 28.5 3.43388V26.5661C28.5 27.6343 27.6124 28.5 26.5172 28.5H3.48281C2.38762 28.5 1.5 27.6343 1.5 26.5661V3.43388ZM9.84131 24.1024V11.9102H5.78963V24.1024H9.84131ZM7.81631 10.2446C9.22875 10.2446 10.1079 9.30975 10.1079 8.13863C10.0826 6.94219 9.23044 6.03263 7.84331 6.03263C6.45619 6.03263 5.55 6.94387 5.55 8.13863C5.55 9.30975 6.42919 10.2446 7.78931 10.2446H7.81631ZM16.0986 24.1024V17.2933C16.0986 16.9288 16.1256 16.5643 16.2336 16.3044C16.5255 15.5771 17.1921 14.8228 18.3126 14.8228C19.779 14.8228 20.3646 15.9399 20.3646 17.5802V24.1024H24.4163V17.1094C24.4163 13.3631 22.4182 11.6216 19.752 11.6216C17.6021 11.6216 16.6386 12.8029 16.0986 13.6348V13.677H16.0716C16.0805 13.6629 16.0895 13.6489 16.0986 13.6348V11.9102H12.0486C12.0992 13.0543 12.0486 24.1024 12.0486 24.1024H16.0986Z" fill="#EEEEEE"/>
</svg>
