<svg width="30" height="30" viewBox="0 0 30 30" fill="none" xmlns="http://www.w3.org/2000/svg">
<g clip-path="url(#clip0_33_341)">
<path d="M11.5641 15C11.1515 15.0005 10.7559 15.1646 10.4642 15.4564C10.1724 15.7481 10.0083 16.1437 10.0078 16.5562C10.0078 17.4169 10.7053 18.1313 11.5641 18.1144C11.9677 18.1004 12.3501 17.9302 12.6307 17.6397C12.9113 17.3492 13.0681 16.9611 13.0681 16.5572C13.0681 16.1533 12.9113 15.7652 12.6307 15.4747C12.3501 15.1842 11.9677 15.014 11.5641 15ZM15.0197 21.8381C15.6103 21.8381 17.6503 21.7669 18.7247 20.6925C18.7943 20.6131 18.8327 20.5112 18.8327 20.4056C18.8327 20.3001 18.7943 20.1981 18.7247 20.1187C18.6875 20.0803 18.6429 20.0497 18.5936 20.0289C18.5443 20.008 18.4913 19.9972 18.4378 19.9972C18.3843 19.9972 18.3313 20.008 18.282 20.0289C18.2328 20.0497 18.1882 20.0803 18.1509 20.1187C17.4891 20.7994 16.0397 21.0319 15.0197 21.0319C13.9978 21.0319 12.5672 20.7994 11.8866 20.1187C11.8493 20.0803 11.8047 20.0497 11.7555 20.0289C11.7062 20.008 11.6532 19.9972 11.5997 19.9972C11.5462 19.9972 11.4932 20.008 11.4439 20.0289C11.3946 20.0497 11.35 20.0803 11.3128 20.1187C11.2744 20.156 11.2438 20.2006 11.2229 20.2498C11.202 20.2991 11.1913 20.3521 11.1913 20.4056C11.1913 20.4591 11.202 20.5121 11.2229 20.5614C11.2438 20.6107 11.2744 20.6553 11.3128 20.6925C12.3703 21.7481 14.4103 21.8362 15.0197 21.8362V21.8381ZM16.8797 16.575C16.8797 17.4338 17.5791 18.1312 18.4378 18.1312C19.2966 18.1312 19.9941 17.4169 19.9941 16.575C19.9744 16.1755 19.8019 15.7988 19.5122 15.523C19.2225 15.2471 18.8378 15.0933 18.4378 15.0933C18.0378 15.0933 17.6531 15.2471 17.3634 15.523C17.0737 15.7988 16.9012 16.1755 16.8816 16.575H16.8797Z" fill="#EEEEEE"/>
<path d="M30 15C30 18.9782 28.4196 22.7936 25.6066 25.6066C22.7936 28.4196 18.9782 30 15 30C11.0218 30 7.20644 28.4196 4.3934 25.6066C1.58035 22.7936 0 18.9782 0 15C0 11.0218 1.58035 7.20644 4.3934 4.3934C7.20644 1.58035 11.0218 0 15 0C18.9782 0 22.7936 1.58035 25.6066 4.3934C28.4196 7.20644 30 11.0218 30 15ZM22.8225 12.8156C22.2319 12.8156 21.6937 13.0481 21.3 13.425C19.7981 12.3506 17.7375 11.6531 15.4481 11.5631L16.4494 6.87375L19.7081 7.57125C19.7224 7.87552 19.8257 8.16891 20.0052 8.41503C20.1847 8.66116 20.4324 8.8492 20.7178 8.95586C21.0031 9.06252 21.3134 9.08309 21.6103 9.01504C21.9073 8.94699 22.1777 8.79329 22.3881 8.57302C22.5984 8.35274 22.7396 8.07556 22.7939 7.77584C22.8483 7.47612 22.8135 7.16704 22.6939 6.8869C22.5742 6.60677 22.375 6.36791 22.1209 6.19992C21.8668 6.03193 21.569 5.94221 21.2644 5.94187C20.973 5.94289 20.6878 6.02568 20.4412 6.18081C20.1946 6.33594 19.9964 6.55719 19.8694 6.81938L16.2356 6.05062C16.1867 6.04009 16.1362 6.0393 16.087 6.04831C16.0377 6.05732 15.9908 6.07595 15.9487 6.10313C15.905 6.13046 15.8678 6.16717 15.8399 6.21062C15.812 6.25407 15.7941 6.30317 15.7875 6.35437L14.6775 11.5819C12.3525 11.6531 10.2563 12.3506 8.73375 13.4419C8.34 13.0669 7.80375 12.8344 7.215 12.8344C6.7157 12.8336 6.23126 13.0043 5.84264 13.3178C5.45402 13.6313 5.18476 14.0686 5.07984 14.5568C4.97492 15.0449 5.04071 15.5543 5.2662 15.9998C5.49169 16.4453 5.86324 16.7999 6.31875 17.0044C6.28125 17.22 6.26438 17.4356 6.26438 17.6663C6.26438 21.0319 10.185 23.7713 15.0188 23.7713C19.8506 23.7713 23.7713 21.0506 23.7713 17.6663C23.7713 17.4525 23.7525 17.22 23.7169 17.0044C24.4688 16.665 25.0069 15.8944 25.0069 15C25.0069 13.7812 24.0225 12.8156 22.8225 12.8156Z" fill="#EEEEEE"/>
</g>
<defs>
<clipPath id="clip0_33_341">
<rect width="30" height="30" fill="white"/>
</clipPath>
</defs>
</svg>
