<svg width="30" height="30" viewBox="0 0 30 30" fill="none" xmlns="http://www.w3.org/2000/svg">
<path d="M27.5771 8.6748C27.4277 8.11828 27.1347 7.61076 26.7275 7.20303C26.3203 6.79531 25.8132 6.5017 25.2568 6.35156C23.209 5.80078 15 5.80078 15 5.80078C15 5.80078 6.79102 5.80078 4.74316 6.34863C4.18658 6.49828 3.67917 6.79173 3.27189 7.19953C2.86461 7.60733 2.57179 8.11511 2.42285 8.67188C1.875 10.7227 1.875 15 1.875 15C1.875 15 1.875 19.2773 2.42285 21.3252C2.72461 22.4561 3.61523 23.3467 4.74316 23.6484C6.79102 24.1992 15 24.1992 15 24.1992C15 24.1992 23.209 24.1992 25.2568 23.6484C26.3877 23.3467 27.2754 22.4561 27.5771 21.3252C28.125 19.2773 28.125 15 28.125 15C28.125 15 28.125 10.7227 27.5771 8.6748ZM12.3926 18.9258V11.0742L19.1895 14.9707L12.3926 18.9258Z" fill="#EEEEEE"/>
</svg>
